<mxfile host="www.draw.io" modified="2020-02-05T18:16:57.466Z" agent="Mozilla/5.0 (X11; Linux x86_64; rv:72.0) Gecko/20100101 Firefox/72.0" etag="T2IHU37gT-Tb4KdciZD6" version="12.6.5" type="github">
  <diagram id="cXAyC1VZPasHQBESQU25" name="Page-1">
    <mxGraphModel dx="1102" dy="568" grid="1" gridSize="10" guides="1" tooltips="1" connect="1" arrows="1" fold="1" page="1" pageScale="1" pageWidth="827" pageHeight="1169" math="0" shadow="0">
      <root>
        <mxCell id="0"/>
        <mxCell id="1" parent="0"/>
        <mxCell id="ux5uT29NNQ9zy8v0MpDd-2" value="&lt;font style=&quot;font-size: 16px&quot;&gt;&lt;b&gt;Evier&lt;/b&gt;&lt;/font&gt;" style="rounded=1;whiteSpace=wrap;html=1;" vertex="1" parent="1">
          <mxGeometry y="300" width="120" height="60" as="geometry"/>
        </mxCell>
        <mxCell id="ux5uT29NNQ9zy8v0MpDd-14" style="edgeStyle=orthogonalEdgeStyle;shape=link;rounded=0;orthogonalLoop=1;jettySize=auto;html=1;exitX=0.5;exitY=1;exitDx=0;exitDy=0;" edge="1" parent="1" source="ux5uT29NNQ9zy8v0MpDd-3">
          <mxGeometry relative="1" as="geometry">
            <mxPoint x="260" y="440" as="targetPoint"/>
          </mxGeometry>
        </mxCell>
        <mxCell id="ux5uT29NNQ9zy8v0MpDd-3" value="&lt;font style=&quot;font-size: 16px&quot;&gt;&lt;b&gt;MÃ L&lt;br&gt;&lt;/b&gt;&lt;/font&gt;" style="rounded=1;whiteSpace=wrap;html=1;" vertex="1" parent="1">
          <mxGeometry x="200" y="300" width="120" height="60" as="geometry"/>
        </mxCell>
        <mxCell id="ux5uT29NNQ9zy8v0MpDd-15" style="edgeStyle=orthogonalEdgeStyle;shape=link;rounded=0;orthogonalLoop=1;jettySize=auto;html=1;exitX=0.5;exitY=1;exitDx=0;exitDy=0;" edge="1" parent="1" source="ux5uT29NNQ9zy8v0MpDd-18">
          <mxGeometry relative="1" as="geometry">
            <mxPoint x="460" y="440" as="targetPoint"/>
          </mxGeometry>
        </mxCell>
        <mxCell id="ux5uT29NNQ9zy8v0MpDd-4" value="&lt;font style=&quot;font-size: 16px&quot;&gt;&lt;b&gt;Lavabo&lt;br&gt;&lt;/b&gt;&lt;/font&gt;" style="rounded=1;whiteSpace=wrap;html=1;" vertex="1" parent="1">
          <mxGeometry x="400" y="300" width="120" height="60" as="geometry"/>
        </mxCell>
        <mxCell id="ux5uT29NNQ9zy8v0MpDd-13" style="edgeStyle=orthogonalEdgeStyle;shape=link;rounded=0;orthogonalLoop=1;jettySize=auto;html=1;exitX=0.5;exitY=1;exitDx=0;exitDy=0;entryX=0.5;entryY=1;entryDx=0;entryDy=0;strokeColor=#000000;shadow=0;comic=0;" edge="1" parent="1" source="ux5uT29NNQ9zy8v0MpDd-5" target="ux5uT29NNQ9zy8v0MpDd-2">
          <mxGeometry relative="1" as="geometry">
            <Array as="points">
              <mxPoint x="660" y="440"/>
              <mxPoint x="60" y="440"/>
            </Array>
          </mxGeometry>
        </mxCell>
        <mxCell id="ux5uT29NNQ9zy8v0MpDd-5" value="&lt;font style=&quot;font-size: 16px&quot;&gt;&lt;b&gt;Chauffe-Eau&lt;br&gt;&lt;/b&gt;&lt;/font&gt;" style="rounded=1;whiteSpace=wrap;html=1;" vertex="1" parent="1">
          <mxGeometry x="600" y="300" width="120" height="60" as="geometry"/>
        </mxCell>
        <mxCell id="ux5uT29NNQ9zy8v0MpDd-12" style="edgeStyle=orthogonalEdgeStyle;shape=link;rounded=0;orthogonalLoop=1;jettySize=auto;html=1;exitX=0.5;exitY=0;exitDx=0;exitDy=0;entryX=0.5;entryY=1;entryDx=0;entryDy=0;" edge="1" parent="1" source="ux5uT29NNQ9zy8v0MpDd-6" target="ux5uT29NNQ9zy8v0MpDd-8">
          <mxGeometry relative="1" as="geometry"/>
        </mxCell>
        <mxCell id="ux5uT29NNQ9zy8v0MpDd-6" value="&lt;font style=&quot;font-size: 16px&quot;&gt;&lt;b&gt;Douche&lt;br&gt;&lt;/b&gt;&lt;/font&gt;" style="rounded=1;whiteSpace=wrap;html=1;" vertex="1" parent="1">
          <mxGeometry x="100" y="640" width="120" height="60" as="geometry"/>
        </mxCell>
        <mxCell id="ux5uT29NNQ9zy8v0MpDd-22" style="shape=link;rounded=0;comic=0;orthogonalLoop=1;jettySize=auto;html=1;exitX=0.5;exitY=0;exitDx=0;exitDy=0;shadow=0;strokeColor=#000000;" edge="1" parent="1" source="ux5uT29NNQ9zy8v0MpDd-8">
          <mxGeometry relative="1" as="geometry">
            <mxPoint x="160" y="440" as="targetPoint"/>
          </mxGeometry>
        </mxCell>
        <mxCell id="ux5uT29NNQ9zy8v0MpDd-8" value="&lt;b&gt;&lt;font style=&quot;font-size: 16px&quot;&gt;Evac&lt;/font&gt;&lt;/b&gt;" style="ellipse;whiteSpace=wrap;html=1;aspect=fixed;" vertex="1" parent="1">
          <mxGeometry x="120" y="480" width="80" height="80" as="geometry"/>
        </mxCell>
        <mxCell id="ux5uT29NNQ9zy8v0MpDd-11" value="" style="rhombus;whiteSpace=wrap;html=1;" vertex="1" parent="1">
          <mxGeometry x="40" y="380" width="40" height="40" as="geometry"/>
        </mxCell>
        <mxCell id="ux5uT29NNQ9zy8v0MpDd-17" value="" style="rhombus;whiteSpace=wrap;html=1;" vertex="1" parent="1">
          <mxGeometry x="240" y="380" width="40" height="40" as="geometry"/>
        </mxCell>
        <mxCell id="ux5uT29NNQ9zy8v0MpDd-18" value="" style="rhombus;whiteSpace=wrap;html=1;" vertex="1" parent="1">
          <mxGeometry x="440" y="380" width="40" height="40" as="geometry"/>
        </mxCell>
        <mxCell id="ux5uT29NNQ9zy8v0MpDd-19" style="edgeStyle=orthogonalEdgeStyle;shape=link;rounded=0;orthogonalLoop=1;jettySize=auto;html=1;exitX=0.5;exitY=1;exitDx=0;exitDy=0;" edge="1" parent="1" source="ux5uT29NNQ9zy8v0MpDd-4" target="ux5uT29NNQ9zy8v0MpDd-18">
          <mxGeometry relative="1" as="geometry">
            <mxPoint x="460" y="440" as="targetPoint"/>
            <mxPoint x="460" y="350" as="sourcePoint"/>
          </mxGeometry>
        </mxCell>
        <mxCell id="ux5uT29NNQ9zy8v0MpDd-20" value="" style="rhombus;whiteSpace=wrap;html=1;" vertex="1" parent="1">
          <mxGeometry x="640" y="380" width="40" height="40" as="geometry"/>
        </mxCell>
        <mxCell id="ux5uT29NNQ9zy8v0MpDd-21" value="" style="rhombus;whiteSpace=wrap;html=1;" vertex="1" parent="1">
          <mxGeometry x="140" y="580" width="40" height="40" as="geometry"/>
        </mxCell>
      </root>
    </mxGraphModel>
  </diagram>
</mxfile>
